<svg width="87" height="21" viewBox="0 0 87 21" fill="none" xmlns="http://www.w3.org/2000/svg">
<path d="M15.5688 18.2731L16.0242 20.5502H18.8704V9.69879H10.3318V12.988H14.8288C14.696 14.3936 14.2216 15.4712 13.4057 16.2209C12.6087 16.9518 11.4703 17.3173 9.99023 17.3173C8.98456 17.3173 8.1307 17.1299 7.42863 16.755C6.72656 16.3614 6.15732 15.846 5.7209 15.2088C5.28448 14.5716 4.96191 13.8594 4.75319 13.0723C4.56344 12.2664 4.46856 11.4418 4.46856 10.5984C4.46856 9.71754 4.56344 8.86479 4.75319 8.04016C4.96191 7.21553 5.28448 6.4846 5.7209 5.84739C6.15732 5.19143 6.72656 4.67604 7.42863 4.3012C8.1307 3.90763 8.98456 3.71084 9.99023 3.71084C11.0718 3.71084 11.9921 3.99197 12.7511 4.55422C13.51 5.11646 14.0224 5.95984 14.288 7.08434H18.5573C18.4435 5.9411 18.1304 4.92905 17.6181 4.04819C17.1058 3.16734 16.4511 2.42704 15.6542 1.82731C14.8762 1.22758 13.9939 0.777777 13.0072 0.477911C12.0395 0.159304 11.0338 0 9.99023 0C8.43429 0 7.03016 0.271753 5.77782 0.81526C4.54446 1.35877 3.50085 2.10843 2.64698 3.06426C1.79312 4.02008 1.13849 5.14458 0.683092 6.43775C0.227697 7.71218 0 9.09906 0 10.5984C0 12.0602 0.227697 13.4284 0.683092 14.7028C1.13849 15.9585 1.79312 17.0549 2.64698 17.992C3.50085 18.929 4.54446 19.6693 5.77782 20.2129C7.03016 20.7376 8.43429 21 9.99023 21C10.9769 21 11.9541 20.8032 12.9218 20.4096C13.8895 19.9973 14.7719 19.2851 15.5688 18.2731Z" fill="black"/>
<path d="M26.2077 3.76707V0.477911H22.166V3.76707H26.2077ZM22.166 6.01606V20.5502H26.2077V6.01606H22.166Z" fill="black"/>
<path d="M29.3901 6.01606V20.5502H33.4317V14C33.4317 13.344 33.4981 12.7349 33.631 12.1727C33.7638 11.6104 33.982 11.1232 34.2856 10.7108C34.6082 10.2798 35.0256 9.94244 35.5379 9.69879C36.0502 9.45515 36.6764 9.33333 37.4164 9.33333C37.6631 9.33333 37.9193 9.35207 38.1849 9.38956C38.4506 9.4083 38.6783 9.43641 38.868 9.47389V5.76305C38.5454 5.66934 38.2513 5.62249 37.9857 5.62249C37.4734 5.62249 36.98 5.69746 36.5056 5.84739C36.0313 5.99732 35.5854 6.21285 35.1679 6.49398C34.7505 6.75636 34.3805 7.08434 34.0579 7.47791C33.7353 7.85274 33.4792 8.26506 33.2894 8.71486H33.2325V6.01606H29.3901Z" fill="black"/>
<path d="M43.5385 13.2972C43.5385 12.7162 43.5954 12.1446 43.7092 11.5823C43.8231 11.0201 44.0128 10.5234 44.2785 10.0924C44.5631 9.66131 44.9331 9.31459 45.3885 9.05221C45.8439 8.77108 46.4131 8.63052 47.0962 8.63052C47.7793 8.63052 48.3486 8.77108 48.804 9.05221C49.2783 9.31459 49.6484 9.66131 49.914 10.0924C50.1986 10.5234 50.3979 11.0201 50.5117 11.5823C50.6256 12.1446 50.6825 12.7162 50.6825 13.2972C50.6825 13.8782 50.6256 14.4498 50.5117 15.012C50.3979 15.5556 50.1986 16.0522 49.914 16.502C49.6484 16.9331 49.2783 17.2798 48.804 17.5422C48.3486 17.8046 47.7793 17.9357 47.0962 17.9357C46.4131 17.9357 45.8439 17.8046 45.3885 17.5422C44.9331 17.2798 44.5631 16.9331 44.2785 16.502C44.0128 16.0522 43.8231 15.5556 43.7092 15.012C43.5954 14.4498 43.5385 13.8782 43.5385 13.2972ZM39.4968 13.2972C39.4968 14.4592 39.6771 15.5087 40.0376 16.4458C40.3981 17.3829 40.9105 18.1888 41.5746 18.8635C42.2387 19.5194 43.0356 20.0254 43.9654 20.3815C44.8952 20.7376 45.9388 20.9157 47.0962 20.9157C48.2537 20.9157 49.2973 20.7376 50.2271 20.3815C51.1758 20.0254 51.9823 19.5194 52.6464 18.8635C53.3105 18.1888 53.8228 17.3829 54.1833 16.4458C54.5439 15.5087 54.7241 14.4592 54.7241 13.2972C54.7241 12.1352 54.5439 11.0857 54.1833 10.1486C53.8228 9.19277 53.3105 8.38688 52.6464 7.73092C51.9823 7.05622 51.1758 6.54083 50.2271 6.18474C49.2973 5.8099 48.2537 5.62249 47.0962 5.62249C45.9388 5.62249 44.8952 5.8099 43.9654 6.18474C43.0356 6.54083 42.2387 7.05622 41.5746 7.73092C40.9105 8.38688 40.3981 9.19277 40.0376 10.1486C39.6771 11.0857 39.4968 12.1352 39.4968 13.2972Z" fill="black"/>
<path d="M70.0461 4.16064V0.871484H58.9174L56.9535 11.751H60.5967C60.9951 11.2075 61.4221 10.8139 61.8775 10.5703C62.3329 10.3079 62.9211 10.1767 63.6421 10.1767C64.1924 10.1767 64.6762 10.2704 65.0937 10.4578C65.5111 10.6452 65.8716 10.9076 66.1752 11.245C66.4788 11.5823 66.7065 11.9759 66.8583 12.4257C67.0101 12.8755 67.086 13.3534 67.086 13.8594C67.086 14.3467 67.0007 14.8246 66.8299 15.2932C66.6781 15.743 66.4504 16.1459 66.1468 16.502C65.8622 16.8394 65.5016 17.1205 65.0652 17.3454C64.6478 17.5515 64.1734 17.6546 63.6421 17.6546C62.7313 17.6546 61.9818 17.3922 61.3936 16.8675C60.8054 16.324 60.4638 15.6024 60.369 14.7028H56.3273C56.3463 15.7336 56.555 16.6426 56.9535 17.4297C57.3709 18.1981 57.9212 18.8447 58.6043 19.3695C59.2874 19.8942 60.0654 20.2878 60.9382 20.5502C61.83 20.7938 62.7598 20.9157 63.7275 20.9157C64.7332 20.9344 65.6819 20.7751 66.5737 20.4377C67.4655 20.0817 68.2435 19.585 68.9076 18.9478C69.5907 18.3106 70.1315 17.5609 70.53 16.6988C70.9284 15.8179 71.1277 14.8715 71.1277 13.8594C71.1277 12.9411 70.9854 12.079 70.7007 11.2731C70.4351 10.4485 70.0366 9.73628 69.5053 9.13654C68.993 8.53681 68.3573 8.0589 67.5984 7.70281C66.8394 7.34672 65.9665 7.16867 64.9798 7.16867C64.1829 7.16867 63.4713 7.29049 62.8452 7.53414C62.219 7.75904 61.6308 8.14324 61.0805 8.68675L61.0236 8.63052L61.8205 4.16064H70.0461Z" fill="black"/>
<path d="M80.5106 5.8755V12.7068H75.2736L80.4252 5.8755H80.5106ZM80.5106 15.996V20.5502H84.353V15.996H87V12.7068H84.353V0.871484H80.7383L72.0858 12.3414V15.996H80.5106Z" fill="black"/>
</svg>
