<?xml version="1.0" encoding="utf-8"?>
<!-- Generator: Adobe Illustrator 27.0.1, SVG Export Plug-In . SVG Version: 6.00 Build 0)  -->
<svg version="1.1" id="Layer_1" xmlns="http://www.w3.org/2000/svg" xmlns:xlink="http://www.w3.org/1999/xlink" x="0px" y="0px"
	 viewBox="0 0 44.17 16.62" style="enable-background:new 0 0 44.17 16.62;" xml:space="preserve">
<style type="text/css">
	.st0{fill:#FC0303;}
</style>
<g>
	<path class="st0" d="M3.05,13.31c-0.41,0.14-0.89,0.41-1.35,0.41c-0.24,0-0.53-0.05-0.53-0.36c0-0.39,0.8-1.35,1.06-1.7
		c0.15-0.21,0.27-0.41,0.53-0.48c0.72-0.17,1.49-0.19,2.21-0.33l4.98-5.92c0.62-0.74,3.13-3.29,4.04-3.29
		c0.58,0,0.86,0.62,0.86,1.11c0,1.1-1.4,3.1-1.95,4.07c0.14,0.02,0.31,0.05,0.31,0.24c0,0.31-0.72,0.82-0.96,0.99
		c-0.29,0.21-1.16,0.89-1.49,0.89c-0.31,0-0.39-0.26-0.39-0.51c0-1.28,1.47-3.15,2.29-4.07c0.14-0.15,0.15-0.33,0.03-0.33
		c-0.22,0-0.96,0.69-2.86,2.86l-3.42,3.92c2.84,0.55,4.31,0.84,6.88,1.46l-0.91,0.91c-1.1,1.1-1.03,1.13-4.38,0.43
		c-1.51-0.33-3.03-0.53-4.57-0.48L3.05,13.31z"/>
	<path class="st0" d="M18.98,9.08c0.36-0.33,2.04-1.95,2.47-1.95c0.14,0,0.33,0.05,0.39,0.94c0.03,0.41-0.43,0.8-0.7,1.04
		c-0.55,0.5-1.76,1.85-1.76,2.62c0,0.27,0.15,0.38,0.43,0.38c0.65,0,2.12-1.2,2.64-1.61l0.1,0.74c-0.87,0.84-2.69,2.81-3.96,2.81
		c-0.63,0-1.01-0.53-1.01-1.13c0-0.51,0.19-0.99,0.36-1.44l-0.03-0.03c-0.67,0.58-1.81,2.12-2.76,2.12c-0.84,0-1.3-0.96-1.3-1.7
		c0-1.66,1.28-3.37,2.38-4.09c0.24-0.15,0.46-0.19,0.75-0.19c0.24,0,1.11-0.15,1.04,0.36c-0.03,0.27-0.5,0.75-0.68,0.91
		c-0.53,0.6-0.63,0.75-1.3,1.23c-0.53,0.38-0.94,0.75-0.94,1.47c0,0.08,0.02,0.26,0.14,0.26c0.31,0,1.25-0.5,2.05-1.22L18.98,9.08z"
		/>
	<path class="st0" d="M24.18,10.41c-0.38,0.27-0.68,0.53-0.68,1.01c0,0.39,0.41,0.92,1.3,0.92c1.3,0,2.79-1.2,3.78-1.97l0.21,0.67
		c-1.04,1.11-2.96,2.81-4.59,2.81c-1.32,0-1.95-1.23-1.95-2.5c0-1.44,0.51-1.97,1.63-2.81c0.77-0.58,2.41-1.51,3.37-1.51
		c0.53,0,0.77,0.27,0.77,0.79c0,0.94-1.35,2.26-1.81,2.26c-0.39,0-0.57-0.43-0.58-0.75L24.18,10.41z"/>
	<path class="st0" d="M29.53,11.47c0.84-0.67,3.96-3.41,4.9-3.41c0.41,0,0.82,0.43,0.82,0.82c0,0.33-0.68,1.08-0.89,1.32
		c-1.06,1.28-1.01,1.33-1.01,1.51c0,0.22,0.17,0.36,0.38,0.36c0.56,0,1.81-0.92,2.31-1.25l0.09,0.7c-0.79,0.6-2.86,2.28-3.8,2.28
		c-0.51,0-0.79-0.44-0.79-0.91c0-1.08,1.18-2.38,1.8-3.18l-0.03-0.03c-2.93,2-3.78,3.82-4.33,3.82c-0.6,0-0.68-1.34-0.68-1.73
		c0-1.18,0.44-2,1.04-2.98c2.02-3.34,5.43-6.33,6.01-6.33c0.27,0,0.74,0.12,0.74,0.46c0,1.16-5.44,6.81-6.54,7.89V11.47z"/>
	<path class="st0" d="M43,11.06c-0.77,0.98-1.52,1.39-2.77,1.39c-0.72,0.74-1.56,1.28-2.64,1.28c-0.89,0-1.71-0.89-1.78-2.45
		c-0.03-1.28,0.6-2.14,1.56-2.88c0.92-0.75,2.16-1.22,3.2-1.27c0.38-0.02,0.94,0.15,0.94,0.62c0,0.26-0.21,0.36-0.39,0.46
		c0.51,0.14,0.62,0.5,0.62,1.01c0,0.75-0.34,1.35-0.67,2.02c0.75,0.14,1.23-0.51,1.76-0.91L43,11.06z M37.78,10.26
		c-0.38,0.38-0.7,1.04-0.7,1.58c0,0.5,0.33,0.65,0.75,0.65c0.57,0,0.92-0.33,1.32-0.68c-0.12-0.27-0.21-0.5-0.21-0.79
		c0-0.89,0.8-1.97,0.74-2C39.1,9.35,38.29,9.76,37.78,10.26z"/>
</g>
</svg>
