<svg width="50" height="50" viewBox="0 0 50 50" fill="none" xmlns="http://www.w3.org/2000/svg">
<circle cx="25" cy="25" r="25" fill="#333333"/>
<mask id="mask0_2_1536" style="mask-type:alpha" maskUnits="userSpaceOnUse" x="13" y="13" width="24" height="24">
<rect x="13" y="13" width="24" height="24" fill="#D9D9D9"/>
</mask>
<g mask="url(#mask0_2_1536)">
<path d="M26 34V32H28V34H26ZM24 32V27H26V32H24ZM32 29V25H34V29H32ZM30 25V23H32V25H30ZM18 27V25H20V27H18ZM16 25V23H18V25H16ZM25 18V16H27V18H25ZM17.5 20.5H20.5V17.5H17.5V20.5ZM16 22V16H22V22H16ZM17.5 32.5H20.5V29.5H17.5V32.5ZM16 34V28H22V34H16ZM29.5 20.5H32.5V17.5H29.5V20.5ZM28 22V16H34V22H28ZM30 34V31H28V29H32V32H34V34H30ZM26 27V25H30V27H26ZM22 27V25H20V23H26V25H24V27H22ZM23 22V18H25V20H27V22H23ZM18.25 19.75V18.25H19.75V19.75H18.25ZM18.25 31.75V30.25H19.75V31.75H18.25ZM30.25 19.75V18.25H31.75V19.75H30.25Z" fill="white"/>
</g>
</svg>
