<svg width="50" height="50" viewBox="0 0 50 50" fill="none" xmlns="http://www.w3.org/2000/svg">
<circle cx="25" cy="25" r="25" fill="#24CC63"/>
<path fill-rule="evenodd" clip-rule="evenodd" d="M32.3662 17.8351C33.3196 18.7295 34.0706 19.7674 34.5937 20.9233C35.1337 22.1299 35.4122 23.404 35.4038 24.7288C35.4038 26.0451 35.1253 27.3276 34.5853 28.5258C34.0621 29.6818 33.3112 30.7196 32.3577 31.614C31.4042 32.5084 30.2989 33.2003 29.067 33.6897C27.7929 34.196 26.4428 34.4491 25.0506 34.4491C23.5571 34.4491 22.1311 34.1622 20.7895 33.5885L16.3005 35.5882L17.1443 30.9896C15.5665 29.2346 14.7058 27.0239 14.7058 24.7203C14.7058 23.4041 14.9843 22.1215 15.5243 20.9233C16.0474 19.7674 16.7984 18.7295 17.7519 17.8351C18.7053 16.9407 19.8107 16.2488 21.0426 15.7594C22.3167 15.2531 23.6668 15 25.059 15C26.4512 15 27.8013 15.2531 29.0754 15.7594C30.3073 16.2488 31.4127 16.9491 32.3662 17.8351ZM28.2739 26.2222C28.5017 26.3066 28.8223 26.4416 29.2611 26.661C29.3794 26.7218 29.5039 26.7729 29.6293 26.8244C29.8347 26.9087 30.0428 26.9941 30.2314 27.1251C30.3833 27.3276 30.4255 27.4963 30.3243 27.9435C28.3329 33.0906 18.5451 25.6232 20.1736 21.6996C20.4436 21.0836 21.1017 19.9023 22.2493 20.493C22.4287 20.5827 22.5038 20.7729 22.5785 20.9623C22.6163 21.058 22.654 21.1534 22.7049 21.2355C22.816 21.4682 22.937 21.734 23.0409 21.9623C23.1028 22.0983 23.1587 22.221 23.2028 22.3155C23.2166 22.3658 23.2444 22.4214 23.2752 22.4831C23.3943 22.7219 23.5594 23.0528 23.1437 23.5221C23.1078 23.591 23.0272 23.6779 22.9394 23.7727C22.7797 23.9451 22.5958 24.1435 22.6121 24.3069C22.7471 24.5516 23.3715 25.4628 23.709 25.7835C24.4684 26.5176 25.4388 27.2348 26.4851 27.4373C26.732 27.3435 26.9702 27.0097 27.1998 26.6882C27.3625 26.4603 27.5208 26.2385 27.6748 26.1125C27.7758 26.0332 28.0371 26.1327 28.2004 26.1948C28.2281 26.2054 28.2531 26.2149 28.2739 26.2222Z" fill="white"/>
</svg>
