<svg width="65" height="60" viewBox="0 0 65 60" fill="none" xmlns="http://www.w3.org/2000/svg">
<path d="M55 50L65 50.0001L65 57.5858C65 58.4767 63.9229 58.9229 63.2929 58.2929L55 50Z" fill="#2DC071"/>
<path d="M0 5C0 2.23858 2.23858 0 5 0H60C62.7614 0 65 2.23858 65 5V50H5C2.23858 50 0 47.7614 0 45V5Z" fill="#2DC071"/>
<path d="M28.253 31.494L28.977 31.917C30.198 32.6291 31.5866 33.0029 33 33C34.5823 33 36.129 32.5308 37.4446 31.6518C38.7602 30.7727 39.7855 29.5233 40.3911 28.0615C40.9966 26.5997 41.155 24.9911 40.8463 23.4393C40.5376 21.8874 39.7757 20.462 38.6569 19.3431C37.538 18.2243 36.1126 17.4624 34.5607 17.1537C33.0089 16.845 31.4004 17.0035 29.9385 17.609C28.4767 18.2145 27.2273 19.2398 26.3483 20.5554C25.4692 21.871 25 23.4177 25 25C25 26.436 25.377 27.813 26.084 29.024L26.506 29.748L25.853 32.149L28.253 31.494ZM23.004 35L24.356 30.032C23.4652 28.5049 22.9971 26.768 23 25C23 19.477 27.477 15 33 15C38.523 15 43 19.477 43 25C43 30.523 38.523 35 33 35C31.2328 35.0029 29.4967 34.5352 27.97 33.645L23.004 35ZM29.391 20.308C29.525 20.298 29.66 20.298 29.794 20.304C29.848 20.308 29.902 20.314 29.956 20.32C30.115 20.338 30.29 20.435 30.349 20.569C30.647 21.245 30.937 21.926 31.217 22.609C31.279 22.761 31.242 22.956 31.124 23.146C31.0429 23.2745 30.9551 23.3986 30.861 23.518C30.748 23.663 30.505 23.929 30.505 23.929C30.505 23.929 30.406 24.047 30.444 24.194C30.458 24.25 30.504 24.331 30.546 24.399L30.605 24.494C30.861 24.921 31.205 25.354 31.625 25.762C31.745 25.878 31.862 25.997 31.988 26.108C32.456 26.521 32.986 26.858 33.558 27.108L33.563 27.11C33.648 27.147 33.691 27.167 33.815 27.22C33.877 27.246 33.941 27.269 34.006 27.286C34.0732 27.3031 34.1439 27.2999 34.2093 27.2767C34.2746 27.2536 34.3316 27.2116 34.373 27.156C35.097 26.279 35.163 26.222 35.169 26.222V26.224C35.2193 26.1771 35.2791 26.1415 35.3443 26.1196C35.4095 26.0977 35.4786 26.09 35.547 26.097C35.607 26.101 35.668 26.112 35.724 26.137C36.255 26.38 37.124 26.759 37.124 26.759L37.706 27.02C37.804 27.067 37.893 27.178 37.896 27.285C37.9 27.352 37.906 27.46 37.883 27.658C37.851 27.917 37.773 28.228 37.695 28.391C37.6416 28.5022 37.5707 28.6042 37.485 28.693C37.3841 28.7989 37.2736 28.8954 37.155 28.981C37.114 29.0119 37.0723 29.0419 37.03 29.071C36.9056 29.1499 36.7778 29.2233 36.647 29.291C36.3895 29.4278 36.1052 29.5063 35.814 29.521C35.629 29.531 35.444 29.545 35.258 29.535C35.25 29.535 34.69 29.448 34.69 29.448C33.2683 29.074 31.9534 28.3735 30.85 27.402C30.624 27.203 30.415 26.989 30.201 26.776C29.311 25.891 28.639 24.936 28.231 24.034C28.0222 23.5913 27.9094 23.1094 27.9 22.62C27.8959 22.0129 28.0944 21.4217 28.464 20.94C28.537 20.846 28.606 20.748 28.725 20.635C28.852 20.515 28.932 20.451 29.019 20.407C29.1347 20.349 29.2609 20.315 29.39 20.307L29.391 20.308Z" fill="white"/>
</svg>
